<svg xmlns="http://www.w3.org/2000/svg" xmlns:xlink="http://www.w3.org/1999/xlink" viewBox="0 0 281.72 94"><defs><linearGradient id="GradientFill_1" x1="15.84" y1="-149.54" x2="14.18" y2="256.91" gradientUnits="userSpaceOnUse"><stop offset="0" stop-color="#cab279"/><stop offset="0.21" stop-color="#f4f4db"/><stop offset="0.28" stop-color="#e4e2b1"/><stop offset="0.73" stop-color="#b29843"/><stop offset="1" stop-color="#e4e2b1"/></linearGradient><linearGradient id="linear-gradient" x1="51.98" y1="-41.4" x2="22.64" y2="196.17" gradientUnits="userSpaceOnUse"><stop offset="0.11" stop-color="#cab279"/><stop offset="0.19" stop-color="#e1d090"/><stop offset="0.3" stop-color="#e3cd7b"/><stop offset="0.73" stop-color="#b29843"/><stop offset="1" stop-color="#e4e2b1"/></linearGradient></defs><title>Asset 2</title><g style="isolation:isolate"><g id="Layer_2" data-name="Layer 2"><g id="Layer_1-2" data-name="Layer 1"><path d="M29.72,87.31c-10.24.16-20.4.77-29.72,5.8L5.68,13.84c7.94,1.55,20.8-1.68,20.8-1.68C27.47,35.55,29.11,64.44,29.72,87.31Z" fill="url(#GradientFill_1)"/><path d="M29.72,87.31c-9.68.41-19.61.3-29.72,5.8L5.68,13.84c7.94,1.55,20.8-1.68,20.8-1.68C27.47,35.55,29.11,64.44,29.72,87.31Z" opacity="0.4" fill="url(#GradientFill_1)" style="mix-blend-mode:multiply"/><path d="M29.72,87.31C20,87.47,9.82,88.08,0,93.1L5.68,13.84c7.94,1.55,20.8-1.68,20.8-1.68C27.47,35.55,29.11,64.44,29.72,87.31Z" opacity="0.4" fill="url(#GradientFill_1)" style="mix-blend-mode:color-burn"/><path d="M29.72,87.31c-9.4.08-19.32.77-29.72,5.8L5.68,13.84c7.94,1.55,20.8-1.68,20.8-1.68C27.47,35.55,29.11,64.44,29.72,87.31Z" opacity="0.4" fill="url(#GradientFill_1)" style="mix-blend-mode:color-burn"/><path d="M57.69,87C40.1,86,29.36,89.1,18.44,94L25.1,1.71C34.77,3.49,54.1,0,54.1,0,55.3,26.93,57.15,60.63,57.69,87Z" fill="url(#linear-gradient)"/><path d="M18.76,40.84c-.48-4.91-1-10.48-4.61-16.11A26.29,26.29,0,0,0,5.53,16l0,.67A26,26,0,0,1,13.65,25c3.51,5.51,4,11,4.51,15.86S19,50,22.06,53.45l.59-.22C19.64,49.88,19.23,45.67,18.76,40.84Z" fill="#fff"/><path d="M18.84,40.84c-1-10.06-4.37-19.26-13.27-24.93a.08.08,0,0,0-.12.07l0,.67a.08.08,0,0,0,0,.07c7.65,5,11.37,13.07,12.41,22,.62,5.32.76,10.4,4.14,14.81a.09.09,0,0,0,.09,0l.59-.22a.08.08,0,0,0,0-.14c-2.92-3.68-3.42-7.8-3.87-12.34,0-.1-.18-.11-.16,0a31.36,31.36,0,0,0,1.65,8.79c2.08,5.1-.1,1.28-.91-1.31-2-6.59-1.05-13.54-3.93-20A28.45,28.45,0,0,0,10.69,21a35.1,35.1,0,0,0-3.11-3c-.49-.43-3.53-2.43-1-1.28,4,1.82,7.46,7.34,9.19,11.09,1.9,4.11,2.48,8.54,2.92,13C18.69,40.94,18.85,40.94,18.84,40.84Z" fill="#fff"/><path d="M32.91,59.32a23.48,23.48,0,0,0,6,.74c5.93,0,12.18-1.89,17.54-4.14l0-.68c-5.37,2.27-11.67,4.2-17.6,4.2a22.24,22.24,0,0,1-5.75-.71c-4.82-1.29-7.92-3-10-5l-.6.22C24.61,56.13,27.84,58,32.91,59.32Z" fill="#fff"/><path d="M32.89,59.4C41,61.23,49,59,56.47,56a.09.09,0,0,0,.06-.08l0-.68s-.05-.1-.1-.08c-10.54,4.32-23.92,7-33.24-1.51a.08.08,0,0,0-.08,0l-.6.22a.08.08,0,0,0,0,.14c2.95,2.84,6.55,4.29,10.44,5.41a.08.08,0,0,0,0-.16c-2-.59-9-2.17-9.62-4.65l3.69,2a26.31,26.31,0,0,0,14.26,2.84,40.87,40.87,0,0,0,7.4-1.35c1.61-.44,3.18-1,4.76-1.54.6-.2,4.09-2,2.14-.48-2.37,1.81-6.63,2.54-9.49,3.13a30.54,30.54,0,0,1-13.15.07C32.83,59.22,32.79,59.38,32.89,59.4Z" fill="#fff"/><path d="M5.36,57.68c5.89,0,11-1.5,17.15-3.75l.6-.22,3.84-1.43c4.1-1.54,8.74-3.28,14.31-5a45,45,0,0,1,13.59-2.11l1.17,0,0-.6-1.16,0a45.5,45.5,0,0,0-13.76,2.14c-5.63,1.78-10.29,3.53-14.4,5.08l-4,1.5-.59.22C16,55.64,11,57.1,5.38,57.1Q4,57.1,2.65,57l0,.58Q4,57.68,5.36,57.68Z" fill="#fff"/><path d="M5.36,57.76C23.09,57.31,38.06,44.94,56,45.22a.08.08,0,0,0,.08-.08l0-.6a.08.08,0,0,0-.08-.08c-18.76-.3-34.66,13.61-53.35,12.45a.08.08,0,0,0-.08.08l0,.58a.08.08,0,0,0,.08.08q1.37.11,2.75.11a.08.08,0,0,0,0-.16c-.21,0-2.67-.06-2.65-.32a12.61,12.61,0,0,1,2.67-.09,41.23,41.23,0,0,0,5.79-.52A72.4,72.4,0,0,0,24,52.83c9.27-3.43,19.06-8.1,29.12-8.2.15,0,2.85-.1,2.83.2s-2.63.22-2.8.23c-1.73.11-3.44.24-5.16.5a79,79,0,0,0-14.44,4.19c-9.2,3.29-18.24,7.58-28.17,7.83A.08.08,0,0,0,5.36,57.76Z" fill="#fff"/><path d="M32.26,68.39a75.42,75.42,0,0,0,24.52-4.2l0-.66a74.59,74.59,0,0,1-24.5,4.25A97.69,97.69,0,0,1,2.21,63.25l0,.63A98.44,98.44,0,0,0,32.26,68.39Z" fill="#fff"/><path d="M32.26,68.47a80.59,80.59,0,0,0,24.54-4.2.08.08,0,0,0,.06-.08l0-.66a.08.08,0,0,0-.1-.08C39,69.4,20,68.73,2.23,63.17a.08.08,0,0,0-.1.08l0,.63a.08.08,0,0,0,.06.08,103.63,103.63,0,0,0,30.12,4.51.08.08,0,0,0,0-.16C23,68.23,12.9,67.58,4.12,64.39c-3.23-1.17-.41-.57,1.32-.09s3.75,1,5.65,1.39a98.32,98.32,0,0,0,12.08,1.79,81.27,81.27,0,0,0,27.12-1.92c1.36-.35,5.1-2.21,6.4-1.7-.43-.17-3.37,1.35-3.94,1.51q-1.66.47-3.33.87A77.94,77.94,0,0,1,32.26,68.3.08.08,0,0,0,32.26,68.47Z" fill="#fff"/><path d="M57.63,85.38l0-.63c-6.34-1-12.32-3.09-18.16-5.12-6.38-2.22-12.42-4.32-18.32-4.8-1.27-.1-2.58-.16-3.88-.16a57.22,57.22,0,0,0-16,2.42l0,.63a56.79,56.79,0,0,1,16-2.45c1.29,0,2.59.05,3.85.15,5.83.48,11.83,2.57,18.19,4.78C45.17,82.26,51.22,84.36,57.63,85.38Z" fill="#fff"/><path d="M57.71,85.38l0-.63a.08.08,0,0,0-.06-.08c-10.07-1.77-19.3-6.1-29.15-8.61-9.1-2.32-18.29-1.55-27.26,1a.08.08,0,0,0-.06.08l0,.63a.08.08,0,0,0,.1.08c10.24-2.89,20.2-3.16,30.4-.06,8.68,2.64,17,6.14,26,7.72.1,0,.15-.14,0-.16C48.1,83.63,39.28,79.72,30,77.1c-8.94-2.52-17.39-2-26.38-.12-.56.12-3.37,1.11-1.54.09a12.29,12.29,0,0,1,3.32-1,56.21,56.21,0,0,1,9-1.27A48.7,48.7,0,0,1,30.92,76.9c4.5,1.31,8.88,3,13.32,4.46,1.38.46,13.27,3.09,13.31,4C57.55,85.49,57.71,85.49,57.71,85.38Z" fill="#fff"/><path d="M108.52,23.94v1.81H98V52H95.79V25.75H85.26V23.94Z" fill="#a7a9ac"/><path d="M131.55,26.8V52h-2v-12H112.76V52h-2V26.8h2V38.45h16.83V26.8Z" fill="#a7a9ac"/><path d="M150.46,26.8v1.63H138.65V38.52h11.51v1.64H138.65V50.4h12.1V52h-14V26.8Z" fill="#a7a9ac"/><path d="M190.52,25.93v2.37a21.25,21.25,0,0,0-10-2.71,11.81,11.81,0,0,0-8.75,3.56A12.14,12.14,0,0,0,168.24,38a11.89,11.89,0,0,0,3.54,8.86,12.32,12.32,0,0,0,9,3.48,21.52,21.52,0,0,0,10-2.87v2.25a21.17,21.17,0,0,1-10,2.63,14.78,14.78,0,0,1-10.68-4.11A13.62,13.62,0,0,1,165.89,38a13.64,13.64,0,0,1,4.36-10.31,14.57,14.57,0,0,1,10.39-4.14A23.69,23.69,0,0,1,190.52,25.93Z" fill="#a7a9ac"/><path d="M206.12,26.47a13.13,13.13,0,0,1,9.48,3.76,12.3,12.3,0,0,1,3.89,9.18,12.28,12.28,0,0,1-3.89,9.17,13.78,13.78,0,0,1-18.93,0,12.31,12.31,0,0,1-3.87-9.17,12.33,12.33,0,0,1,3.87-9.18A13,13,0,0,1,206.12,26.47Zm.07,24.07a10.84,10.84,0,0,0,7.95-3.22,10.73,10.73,0,0,0,3.24-7.9,11,11,0,0,0-11.19-11.14,11,11,0,0,0-8,3.22,10.66,10.66,0,0,0-3.28,7.92,10.65,10.65,0,0,0,3.28,7.9A11,11,0,0,0,206.19,50.55Z" fill="#a7a9ac"/><path d="M235.42,28.06v2.15a11.69,11.69,0,0,0-5.65-1.93,5.45,5.45,0,0,0-3.8,1.38,4.42,4.42,0,0,0-1.53,3.42,4.22,4.22,0,0,0,.9,2.64A8.71,8.71,0,0,0,229.11,38a35.92,35.92,0,0,1,4.19,1.81,6.35,6.35,0,0,1,2.24,2.1,6.27,6.27,0,0,1,.92,3.56,6.49,6.49,0,0,1-2.13,4.91,7.31,7.31,0,0,1-5.2,2,11.72,11.72,0,0,1-6.47-2.2V47.86q3.66,2.69,6.36,2.69a5.31,5.31,0,0,0,3.78-1.45,4.88,4.88,0,0,0,.59-6.47,8.74,8.74,0,0,0-3.88-2.41,37.74,37.74,0,0,1-4.18-1.81,6.21,6.21,0,0,1-2.13-2,5.66,5.66,0,0,1-.88-3.28,6.19,6.19,0,0,1,2.13-4.74,7.3,7.3,0,0,1,5.13-2A12,12,0,0,1,235.42,28.06Z" fill="#a7a9ac"/><path d="M260.5,26.8v1.63H251V52h-2V28.43H239.6V26.8Z" fill="#a7a9ac"/><path d="M269.84,26.62,281.5,52h-2l-4-8.72H263.13l-4,8.72h-2l11.66-25.41Zm4.88,15.06L269.29,29.8l-5.42,11.88Z" fill="#a7a9ac"/><g opacity="0.9"><path d="M141.23,62.71v7.61h-.46l-5.51-6.65v6.65h-.56V62.71h.47l5.5,6.65V62.71Z" fill="#a7a9ac"/><path d="M154,62.71v7.61h-.56V66.72h-4.83v3.61H148V62.71h.56v3.51h4.83V62.71Z" fill="#a7a9ac"/><path d="M163.6,62.66,167,70.32h-.59l-1.14-2.63h-3.55l-1.14,2.63h-.59l3.35-7.66ZM165,67.2l-1.56-3.58-1.56,3.58Z" fill="#a7a9ac"/><path d="M183.21,62.71v.49h-2.72v7.12h-.56V63.2H177.2v-.49Z" fill="#a7a9ac"/><path d="M189.19,62.71H191a2.65,2.65,0,0,1,1.79.53,1.8,1.8,0,0,1,.62,1.44,1.89,1.89,0,0,1-1.38,1.85,3.34,3.34,0,0,1,1,1.16l1.64,2.63H194l-1.26-2.09a5.11,5.11,0,0,0-1-1.3,1.74,1.74,0,0,0-1-.26h-1v3.65h-.56Zm.56.49v3H191a2.18,2.18,0,0,0,1.4-.39,1.48,1.48,0,0,0,0-2.2,2.24,2.24,0,0,0-1.41-.39Z" fill="#a7a9ac"/><path d="M203.24,62.66l3.35,7.66H206l-1.14-2.63h-3.54l-1.14,2.63h-.59l3.35-7.66Zm1.4,4.54-1.56-3.58-1.56,3.58Z" fill="#a7a9ac"/><path d="M219.08,62.71v7.61h-.46l-5.51-6.65v6.65h-.56V62.71H213l5.5,6.65V62.71Z" fill="#a7a9ac"/><path d="M231.91,63.26v.67a5,5,0,0,0-2.57-.77,3,3,0,0,0-2.29,1,3.64,3.64,0,0,0,0,4.8,3.21,3.21,0,0,0,2.45,1,4.12,4.12,0,0,0,2-.47V67.35H230v-.49h2.1v2.91a5.69,5.69,0,0,1-2.58.64,3.84,3.84,0,0,1-3.94-3.92,3.79,3.79,0,0,1,3.89-3.89A5.76,5.76,0,0,1,231.91,63.26Z" fill="#a7a9ac"/></g><rect x="85.05" y="66.04" width="35.91" height="0.5" fill="#6d6e71"/><rect x="245.81" y="66.04" width="35.91" height="0.5" fill="#6d6e71"/></g></g></g></svg>