<?xml version="1.0" encoding="UTF-8"?>
<!DOCTYPE svg PUBLIC "-//W3C//DTD SVG 1.1//EN" "http://www.w3.org/Graphics/SVG/1.1/DTD/svg11.dtd">
<!-- Creator: CorelDRAW X7 -->
<svg xmlns="http://www.w3.org/2000/svg" xml:space="preserve" width="834px" height="659px" version="1.1" style="shape-rendering:geometricPrecision; text-rendering:geometricPrecision; image-rendering:optimizeQuality; fill-rule:evenodd; clip-rule:evenodd"
viewBox="0 0 30195 23873"
 xmlns:xlink="http://www.w3.org/1999/xlink">
 <defs>
  <style type="text/css">
   <![CDATA[
    .fil0 {fill:#FEFEFE;fill-rule:nonzero}
   ]]>
  </style>
 </defs>
 <g id="__x0023_Layer_x0020_1">
  <metadata id="CorelCorpID_0Corel-Layer"/>
  <g id="_2028983442048">
   <g>
    <g>
     <path class="fil0" d="M13483 6566c9,67 19,134 30,201 -21,-159 -37,-321 -53,-487 -48,-486 -100,-1015 -281,-1559 49,159 87,319 118,481 28,118 52,236 71,356 52,332 76,673 115,1008z"/>
     <path class="fil0" d="M11933 2872c-101,-87 -202,-164 -302,-232 15,15 31,31 49,46 44,32 86,65 128,99 42,29 85,58 125,87z"/>
     <path class="fil0" d="M11000 9703c845,266 1715,460 2592,573l130 -1815c-725,226 -1465,390 -2238,402 -142,-2 -283,-7 -424,-17l-62 857c1,0 1,0 2,0z"/>
     <path class="fil0" d="M13733 8310l39 -552c-110,-232 -177,-481 -222,-742 -28,-148 -49,-299 -67,-450 -62,-458 -98,-915 -186,-1364 -220,-946 -722,-1813 -1489,-2417 -45,-33 -89,-65 -128,-99 -56,-40 -112,-79 -170,-116l-443 6172c930,63 1806,-145 2666,-432z"/>
     <path class="fil0" d="M13586 10371c-824,-104 -1568,-263 -2228,-453 26,9 53,19 80,28 706,196 1423,337 2147,428l1 -3z"/>
     <path class="fil0" d="M12969 11473c19,-1 37,-1 56,-2 79,-3 157,-5 235,-5 20,0 39,-1 59,-1 17,0 35,0 52,1 45,0 91,1 136,2l77 -1075c-739,-78 -1472,-213 -2146,-447 -150,-41 -299,-85 -448,-131l-144 2014c697,-198 1409,-325 2123,-356z"/>
     <path class="fil0" d="M11168 9763c60,18 120,36 181,54 -61,-22 -125,-43 -181,-54z"/>
     <path class="fil0" d="M11782 2628c-24,-18 -49,-34 -74,-48 61,42 122,88 183,136 -12,-11 -24,-21 -37,-32 320,247 585,530 803,843 63,85 124,174 185,269 459,716 594,1425 669,2076 19,132 36,264 50,398 42,432 87,855 229,1246l395 -5530c-674,129 -1827,299 -2644,139l-23 324c92,57 179,117 264,179z"/>
     <path class="fil0" d="M12578 11594c-494,46 -966,135 -1406,248 66,-12 132,-24 197,-37 212,-49 424,-89 636,-122 190,-35 380,-66 573,-89z"/>
     <path class="fil0" d="M12005 11683c-211,38 -422,81 -636,122 -175,40 -351,85 -527,135 -1,1 -3,0 -4,-1l-169 2355c859,-463 1765,-681 2692,-788l138 -1921c-499,-14 -997,20 -1494,98z"/>
     <path class="fil0" d="M11222 8759c89,5 177,8 265,8 10,0 19,-1 29,-1 -97,-8 -206,-19 -294,-7z"/>
    </g>
    <g>
     <path class="fil0" d="M19421 9863c-502,168 -1010,303 -1524,406 -87,18 -175,35 -263,51 -61,11 -122,21 -183,31 -93,15 -186,29 -281,42 -74,11 -149,20 -223,29 -43,5 -87,9 -131,14 -390,42 -784,68 -1180,71 -412,-2 -823,-18 -1231,-49 -151,-9 -302,-19 -454,-31l-76 1059c14,1 29,1 43,3 88,7 176,17 264,28 15,2 31,5 47,7 21,2 42,6 63,9 228,31 456,74 683,129 1345,332 2612,897 3957,1215 106,20 215,43 313,70 90,18 182,35 273,51 -22,-993 -56,-2048 -97,-3135z"/>
     <path class="fil0" d="M19414 9747c1,-1 2,0 2,0 -14,-381 -30,-766 -46,-1153 -1143,468 -2403,815 -3636,521 -577,-162 -1134,-381 -1573,-797 -20,7 -40,13 -61,20l-141 1981c1833,189 3696,23 5455,-572z"/>
     <path class="fil0" d="M18696 12834c211,53 424,99 640,139 -28,-9 -59,-18 -91,-26 -105,-22 -209,-45 -313,-70 -85,-16 -166,-30 -236,-43z"/>
     <path class="fil0" d="M14491 8461c-22,-14 -45,-27 -67,-40 67,51 140,101 218,149 -14,-10 -28,-21 -42,-31 24,17 49,33 73,49 280,165 634,309 1088,429 50,14 103,25 155,36 1143,184 2405,-149 3447,-579 1,0 2,1 3,1 -22,-509 -44,-1022 -67,-1537 -1788,-27 -3385,765 -5027,1341 71,65 144,126 219,182z"/>
     <path class="fil0" d="M13952 10413l0 3c151,16 301,30 453,42 63,3 126,6 189,9 -219,-13 -432,-33 -642,-54z"/>
     <path class="fil0" d="M18552 12895c-628,-165 -1236,-373 -1834,-580 -55,-19 -109,-38 -163,-57 -422,-142 -844,-281 -1274,-402 -471,-133 -943,-215 -1414,-252l-197 2753c1619,-708 3247,-1144 5856,-1005 -1,-80 -3,-161 -5,-241 -328,-57 -650,-131 -969,-216z"/>
     <path class="fil0" d="M14156 8163c336,-121 671,-249 1007,-373 523,-194 1044,-385 1571,-546 59,-18 118,-36 177,-53 29,-9 56,-18 85,-27 560,-177 1134,-282 1713,-316 193,-14 388,-21 585,-18 -105,-2355 -225,-4727 -319,-6830 0,0 -2773,501 -4299,287l-559 7826c13,17 25,34 39,50z"/>
     <path class="fil0" d="M16887 7198c-51,15 -102,31 -153,46 -398,123 -791,264 -1180,410 404,-146 845,-300 1333,-456z"/>
     <path class="fil0" d="M15845 10404c404,-8 798,-38 1182,-87 -392,48 -786,76 -1182,87z"/>
    </g>
   </g>
   <g>
    <g>
     <polygon class="fil0" points="3604,16737 3604,17015 1987,17015 1987,21049 1650,21049 1650,17015 33,17015 33,16737 "/>
     <polygon class="fil0" points="7140,17175 7140,21049 6838,21049 6838,19213 4254,19213 4254,21049 3954,21049 3954,17175 4254,17175 4254,18964 6838,18964 6838,17175 "/>
     <polygon class="fil0" points="10043,17175 10043,17425 8230,17425 8230,18975 9996,18975 9996,19227 8230,19227 8230,20799 10088,20799 10088,21049 7931,21049 7931,17175 "/>
     <path class="fil0" d="M16193 17042l0 365c-523,-278 -1035,-417 -1537,-417 -535,0 -983,182 -1343,546 -360,365 -540,819 -540,1365 0,551 181,1005 544,1360 362,357 823,534 1385,534 469,0 981,-146 1534,-441l0 346c-510,269 -1019,404 -1527,404 -657,0 -1204,-210 -1641,-631 -437,-421 -656,-945 -656,-1572 0,-632 223,-1160 670,-1584 446,-424 978,-636 1595,-636 486,0 992,121 1516,361z"/>
     <path class="fil0" d="M18588 17125c572,0 1058,193 1456,578 398,386 597,856 597,1410 0,553 -199,1022 -597,1408 -398,385 -884,578 -1456,578 -571,0 -1054,-193 -1451,-578 -396,-386 -594,-855 -594,-1408 0,-554 198,-1024 594,-1410 397,-385 880,-578 1451,-578zm11 3696l0 0c482,0 889,-165 1221,-494 331,-330 497,-735 497,-1214 0,-480 -166,-886 -497,-1215 -332,-330 -739,-495 -1221,-495 -484,0 -893,165 -1228,495 -336,329 -504,735 -504,1215 0,479 168,884 504,1214 335,329 744,494 1228,494z"/>
     <path class="fil0" d="M23087 17369l0 331c-337,-198 -626,-297 -868,-297 -233,0 -428,71 -584,212 -156,142 -234,316 -234,525 0,150 46,285 138,405 92,120 286,236 580,347 294,111 508,203 643,277 135,74 250,181 344,322 94,140 141,322 141,546 0,297 -109,549 -327,754 -218,205 -484,308 -798,308 -322,0 -653,-113 -993,-339l0 -352c375,276 701,413 976,413 229,0 423,-74 581,-223 158,-149 237,-331 237,-547 0,-165 -49,-313 -147,-446 -98,-132 -296,-255 -596,-370 -299,-115 -513,-208 -641,-278 -129,-70 -238,-170 -328,-300 -90,-131 -135,-298 -135,-504 0,-284 109,-526 328,-727 218,-200 480,-301 787,-301 301,0 600,82 896,244z"/>
     <polygon class="fil0" points="26937,17175 26937,17425 25485,17425 25485,21049 25182,21049 25182,17425 23729,17425 23729,17175 "/>
     <path class="fil0" d="M28372 17148l1790 3901 -314 0 -612 -1339 -1895 0 -610 1339 -315 0 1791 -3901 165 0zm749 2312l0 0 -834 -1824 -832 1824 1666 0z"/>
    </g>
    <g>
     <polygon class="fil0" points="8627,22690 8627,23858 8556,23858 7711,22837 7711,23858 7625,23858 7625,22690 7698,22690 8542,23711 8542,22690 "/>
     <polygon class="fil0" points="10581,22690 10581,23858 10495,23858 10495,23304 9752,23304 9752,23858 9666,23858 9666,22690 9752,22690 9752,23229 10495,23229 10495,22690 "/>
     <path class="fil0" d="M12061 22682l514 1176 -90 0 -176 -404 -544 0 -175 404 -90 0 514 -1176 47 0zm215 697l0 0 -239 -550 -239 550 478 0z"/>
     <polygon class="fil0" points="15071,22690 15071,22765 14653,22765 14653,23858 14567,23858 14567,22765 14149,22765 14149,22690 "/>
     <path class="fil0" d="M15989 22690l285 0c120,0 211,26 274,81 63,54 95,128 95,220 0,135 -71,230 -212,285 37,18 86,78 148,178l251 404 -101 0 -194 -321c-64,-106 -115,-173 -151,-200 -36,-26 -89,-40 -158,-40l-151 0 0 561 -86 0 0 -1168zm86 75l0 0 0 457 185 0c94,0 166,-20 215,-60 50,-39 75,-96 75,-169 0,-72 -26,-128 -76,-168 -50,-40 -123,-60 -217,-60l-182 0z"/>
     <path class="fil0" d="M18146 22682l514 1176 -91 0 -175 -404 -544 0 -175 404 -91 0 514 -1176 48 0zm215 697l0 0 -240 -550 -239 550 479 0z"/>
     <polygon class="fil0" points="20578,22690 20578,23858 20507,23858 19662,22837 19662,23858 19576,23858 19576,22690 19649,22690 20492,23711 20492,22690 "/>
     <path class="fil0" d="M22548 22774l0 102c-132,-78 -263,-118 -394,-118 -141,0 -258,49 -351,147 -93,98 -140,221 -140,369 0,148 46,271 138,369 93,97 218,146 377,146 115,0 216,-24 305,-72l0 -315 -235 0 0 -75 322 0 0 447c-131,66 -263,99 -395,99 -172,0 -317,-57 -432,-172 -116,-115 -173,-258 -173,-430 0,-171 57,-313 170,-426 113,-114 255,-171 427,-171 116,0 243,34 381,100z"/>
    </g>
    <g>
     <polygon class="fil0" points="5513,23286 0,23286 0,23190 5513,23190 "/>
     <polygon class="fil0" points="30195,23286 24682,23286 24682,23190 30195,23190 "/>
    </g>
   </g>
  </g>
 </g>
</svg>
