<?xml version="1.0" encoding="UTF-8"?>
<!DOCTYPE svg PUBLIC "-//W3C//DTD SVG 1.1//EN" "http://www.w3.org/Graphics/SVG/1.1/DTD/svg11.dtd">
<!-- Creator: CorelDRAW X7 -->
<svg xmlns="http://www.w3.org/2000/svg" xml:space="preserve" width="1032px" height="358px" version="1.1" style="shape-rendering:geometricPrecision; text-rendering:geometricPrecision; image-rendering:optimizeQuality; fill-rule:evenodd; clip-rule:evenodd"
viewBox="0 0 515519 178640"
 xmlns:xlink="http://www.w3.org/1999/xlink">
 <defs>
  <style type="text/css">
   <![CDATA[
    .fil0 {fill:#FEFEFE;fill-rule:nonzero}
   ]]>
  </style>
 </defs>
 <g id="__x0023_Layer_x0020_1">
  <metadata id="CorelCorpID_0Corel-Layer"/>
  <g id="_2028983522112">
   <g>
    <g>
     <path class="fil0" d="M35015 81697c113,833 236,1666 367,2499 -256,-1973 -456,-3993 -659,-6053 -589,-6054 -1241,-12634 -3492,-19401 609,1977 1077,3973 1469,5981 342,1465 644,2942 877,4432 645,4135 950,8370 1438,12542z"/>
     <path class="fil0" d="M15725 35735c-1259,-1079 -2516,-2043 -3762,-2890 188,195 392,388 614,579 545,394 1071,808 1597,1223 522,368 1051,730 1551,1088z"/>
     <path class="fil0" d="M4112 120726c10526,3315 21339,5727 32261,7137l1615 -22586c-9026,2814 -18224,4851 -27849,5003 -1769,-24 -3515,-95 -5280,-211l-764 10660c6,1 11,-5 17,-3z"/>
     <path class="fil0" d="M38123 103396l491 -6864c-1372,-2891 -2205,-5984 -2768,-9237 -345,-1844 -610,-3714 -831,-5598 -774,-5700 -1224,-11389 -2315,-16974 -2744,-11773 -8981,-22559 -18526,-30076 -567,-399 -1112,-806 -1597,-1223 -691,-498 -1398,-980 -2119,-1445l-5505 76791c11571,783 22472,-1803 33170,-5374z"/>
     <path class="fil0" d="M36288 129047c-10250,-1295 -19505,-3284 -27722,-5648 333,119 663,242 997,357 8789,2438 17712,4186 26723,5326l2 -35z"/>
     <path class="fil0" d="M28614 142752c234,-11 469,-17 704,-26 973,-36 1947,-57 2921,-62 246,-3 487,-16 733,-16 216,0 431,11 647,13 564,4 1129,18 1693,33l958 -13382c-9191,-963 -18314,-2642 -26707,-5556 -1861,-516 -3719,-1055 -5568,-1633l-1796 25060c8675,-2459 17529,-4043 26415,-4431z"/>
     <path class="fil0" d="M6207 121478c743,227 1497,450 2257,672 -769,-275 -1565,-543 -2257,-672z"/>
     <path class="fil0" d="M13847 32693c-300,-216 -606,-418 -920,-587 756,523 1515,1085 2275,1690 -150,-134 -302,-267 -455,-397 3978,3069 7276,6597 9991,10480 775,1059 1542,2171 2298,3351 5708,8908 7397,17734 8329,25836 238,1640 450,3285 613,4944 530,5381 1086,10640 2852,15507l4921 -68811c-8389,1613 -22743,3723 -32897,1741l-288 4024c1143,706 2230,1451 3281,2222z"/>
     <path class="fil0" d="M23749 144252c-6141,577 -12016,1680 -17497,3093 823,-152 1645,-305 2461,-462 2632,-603 5267,-1108 7905,-1522 2363,-431 4732,-819 7131,-1109z"/>
     <path class="fil0" d="M16618 145361c-2626,480 -5249,1008 -7905,1522 -2188,500 -4373,1060 -6557,1684 -19,6 -37,-4 -56,-11l-2100 29298c10693,-5765 21964,-8479 33498,-9801l1710 -23905c-6203,-179 -12403,246 -18590,1213z"/>
     <path class="fil0" d="M6883 108986c1104,58 2203,98 3289,98 126,0 246,-11 371,-12 -1205,-101 -2566,-233 -3660,-86z"/>
    </g>
    <g>
     <path class="fil0" d="M108893 122724c-6243,2088 -12567,3763 -18958,5050 -1084,220 -2174,432 -3274,629 -757,136 -1515,261 -2275,385 -1158,188 -2321,367 -3496,529 -924,129 -1852,242 -2779,353 -539,64 -1081,122 -1624,180 -4860,528 -9754,845 -14689,885 -5124,-27 -10232,-231 -15318,-617 -1875,-101 -3759,-235 -5643,-385l-944 13182c177,12 358,18 534,32 1089,90 2182,215 3277,358 198,24 396,51 594,77 259,36 519,73 778,112 2843,395 5680,920 8507,1617 16724,4120 32497,11150 49233,15115 1313,250 2675,537 3885,861 1131,232 2267,442 3408,641 -282,-12352 -705,-25481 -1216,-39004z"/>
     <path class="fil0" d="M108812 121274c10,-4 18,5 28,5 -182,-4743 -373,-9534 -572,-14354 -14224,5823 -29904,10142 -45244,6488 -7188,-2011 -14115,-4741 -19575,-9918 -251,86 -503,166 -754,251l-1763 24642c22814,2353 45987,293 67880,-7114z"/>
     <path class="fil0" d="M99878 159691c2625,655 5278,1234 7963,1729 -356,-115 -741,-226 -1140,-333 -1302,-266 -2596,-555 -3885,-861 -1055,-201 -2070,-379 -2938,-535z"/>
     <path class="fil0" d="M47552 105282c-273,-185 -554,-344 -833,-505 834,638 1739,1256 2720,1852 -176,-127 -353,-253 -529,-382 304,208 607,412 914,610 3477,2050 7889,3840 13529,5338 629,169 1282,304 1934,441 14215,2293 29918,-1843 42889,-7194 11,-4 20,5 31,6 -264,-6336 -542,-12720 -828,-19118 -22253,-338 -42114,9510 -62551,16684 888,806 1793,1569 2724,2268z"/>
     <path class="fil0" d="M40849 129562l-3 43c1875,194 3753,371 5634,513 788,43 1574,84 2358,119 -2732,-169 -5381,-407 -7989,-675z"/>
     <path class="fil0" d="M98081 160441c-7806,-2043 -15376,-4640 -22819,-7212 -680,-235 -1357,-470 -2031,-703 -5243,-1771 -10502,-3504 -15842,-5008 -5863,-1651 -11733,-2670 -17601,-3129l-2449 34251c20145,-8817 40398,-14237 72866,-12508 -20,-991 -43,-1997 -65,-2999 -4082,-704 -8092,-1629 -12059,-2692z"/>
     <path class="fil0" d="M43384 101574c4186,-1507 8352,-3105 12529,-4653 6506,-2410 12990,-4789 19547,-6784 736,-228 1473,-451 2212,-667 354,-113 695,-225 1053,-338 6963,-2196 14114,-3500 21314,-3923 2402,-179 4826,-266 7280,-229 -1315,-29304 -2802,-58813 -3966,-84980 0,0 -34506,6230 -53493,3565l-6965 97381c163,209 317,421 489,628z"/>
     <path class="fil0" d="M77366 89568c-636,185 -1271,375 -1906,569 -4944,1527 -9835,3282 -14685,5103 5035,-1828 10525,-3740 16591,-5672z"/>
     <path class="fil0" d="M64401 129454c5026,-97 9932,-473 14708,-1081 -4880,597 -9784,948 -14708,1081z"/>
    </g>
   </g>
   <g>
    <g>
     <polygon class="fil0" points="184657,45269 184657,48726 164538,48726 164538,98921 160346,98921 160346,48726 140224,48726 140224,45269 "/>
     <polygon class="fil0" points="228654,50727 228654,98921 224896,98921 224896,76082 192748,76082 192748,98921 189018,98921 189018,50727 192748,50727 192748,72980 224896,72980 224896,50727 "/>
     <polygon class="fil0" points="264774,50727 264774,53835 242216,53835 242216,73112 264194,73112 264194,76254 242216,76254 242216,95813 265330,95813 265330,98921 238491,98921 238491,50727 "/>
     <path class="fil0" d="M341298 49070l0 4533c-6507,-3456 -12879,-5182 -19126,-5182 -6659,0 -12226,2266 -16706,6792 -4480,4536 -6720,10192 -6720,16979 0,6858 2253,12504 6760,16931 4506,4437 10249,6643 17243,6643 5832,0 12198,-1825 19085,-5487l0 4301c-6344,3350 -12686,5026 -19009,5026 -8167,0 -14973,-2611 -20410,-7853 -5444,-5231 -8164,-11752 -8164,-19561 0,-7860 2779,-14431 8336,-19702 5553,-5272 12170,-7910 19850,-7910 6045,0 12333,1501 18861,4490z"/>
     <path class="fil0" d="M371096 50104c7124,0 13164,2399 18115,7190 4957,4798 7432,10646 7432,17544 0,6876 -2475,12715 -7432,17512 -4951,4794 -10991,7191 -18115,7191 -7101,0 -13117,-2397 -18048,-7191 -4931,-4797 -7393,-10636 -7393,-17512 0,-6898 2462,-12746 7393,-17544 4931,-4791 10947,-7190 18048,-7190zm140 45984l0 0c5997,0 11060,-2052 15185,-6153 4118,-4106 6187,-9135 6187,-15097 0,-5976 -2069,-11023 -6187,-15121 -4125,-4107 -9188,-6160 -15185,-6160 -6025,0 -11117,2053 -15285,6160 -4175,4098 -6263,9145 -6263,15121 0,5962 2088,10991 6263,15097 4168,4101 9260,6153 15285,6153z"/>
     <path class="fil0" d="M427071 53139l0 4109c-4189,-2459 -7787,-3691 -10799,-3691 -2900,0 -5319,881 -7260,2641 -1948,1758 -2920,3932 -2920,6530 0,1866 577,3546 1728,5043 1145,1492 3548,2929 7205,4308 3659,1385 6330,2531 8006,3453 1680,917 3109,2253 4279,4002 1172,1749 1758,4013 1758,6793 0,3704 -1355,6831 -4069,9386 -2713,2551 -6023,3828 -9929,3828 -4010,0 -8121,-1406 -12358,-4212l0 -4376c4667,3425 8720,5135 12144,5135 2855,0 5262,-924 7227,-2774 1968,-1852 2954,-4125 2954,-6815 0,-2048 -610,-3890 -1833,-5540 -1216,-1644 -3685,-3178 -7408,-4612 -3729,-1425 -6390,-2578 -7986,-3450 -1597,-877 -2960,-2120 -4077,-3741 -1116,-1620 -1676,-3707 -1676,-6262 0,-3539 1359,-6554 4076,-9046 2713,-2498 5977,-3744 9794,-3744 3747,0 7462,1014 11144,3035z"/>
     <polygon class="fil0" points="474983,50727 474983,53835 456908,53835 456908,98921 453144,98921 453144,53835 435068,53835 435068,50727 "/>
     <path class="fil0" d="M492832 50382l22278 48539 -3908 0 -7623 -16663 -23573 0 -7591 16663 -3913 0 22284 -48539 2046 0zm9326 28768l0 0 -10385 -22698 -10352 22698 20737 0z"/>
    </g>
    <g>
     <polygon class="fil0" points="247153,119334 247153,133871 246278,133871 235755,121164 235755,133871 234691,133871 234691,119334 235595,119334 246093,132038 246093,119334 "/>
     <polygon class="fil0" points="271470,119334 271470,133871 270393,133871 270393,126982 261159,126982 261159,133871 260085,133871 260085,119334 261159,119334 261159,126048 270393,126048 270393,119334 "/>
     <path class="fil0" d="M289883 119235l6399 14636 -1124 0 -2187 -5026 -6772 0 -2181 5026 -1120 0 6399 -14636 586 0zm2678 8675l0 0 -2976 -6846 -2976 6846 5952 0z"/>
     <polygon class="fil0" points="327332,119334 327332,120270 322134,120270 322134,133871 321060,133871 321060,120270 315867,120270 315867,119334 "/>
     <path class="fil0" d="M338761 119334l3544 0c1491,0 2622,336 3411,1015 784,675 1183,1591 1183,2743 0,1680 -885,2856 -2642,3539 457,225 1071,968 1843,2214l3126 5026 -1261 0 -2410 -3986c-804,-1329 -1433,-2160 -1880,-2492 -452,-327 -1108,-497 -1970,-497l-1878 0 0 6975 -1066 0 0 -14537zm1066 936l0 0 0 5695 2303 0c1173,0 2061,-249 2677,-745 615,-494 931,-1197 931,-2108 0,-898 -321,-1594 -944,-2094 -627,-497 -1532,-748 -2701,-748l-2266 0z"/>
     <path class="fil0" d="M365593 119235l6398 14636 -1131 0 -2182 -5026 -6766 0 -2180 5026 -1124 0 6391 -14636 594 0zm2677 8675l0 0 -2979 -6846 -2976 6846 5955 0z"/>
     <polygon class="fil0" points="395858,119334 395858,133871 394976,133871 384457,121164 384457,133871 383389,133871 383389,119334 384294,119334 394792,132038 394792,119334 "/>
     <path class="fil0" d="M420368 120385l0 1272c-1637,-977 -3274,-1467 -4901,-1467 -1754,0 -3208,610 -4374,1829 -1152,1219 -1736,2753 -1736,4592 0,1836 569,3364 1723,4583 1147,1216 2711,1825 4682,1825 1428,0 2690,-298 3798,-894l0 -3926 -2926 0 0 -932 4009 0 0 5567c-1633,819 -3271,1226 -4921,1226 -2140,0 -3936,-712 -5370,-2141 -1439,-1434 -2155,-3214 -2155,-5347 0,-2128 706,-3897 2115,-5309 1410,-1408 3180,-2118 5317,-2118 1448,0 3029,415 4739,1240z"/>
    </g>
    <g>
     <polygon class="fil0" points="208415,126752 139814,126752 139814,125569 208415,125569 "/>
     <polygon class="fil0" points="515519,126752 446918,126752 446918,125569 515519,125569 "/>
    </g>
   </g>
  </g>
 </g>
</svg>
