<svg xmlns="http://www.w3.org/2000/svg" viewBox="0 0 52.55 85.19">
<title>Asset 2</title>
<g>
<g>
<path d="M2,57.57A89.34,89.34,0,0,0,17.35,61l.77-10.77A47,47,0,0,1,4.84,52.59c-.84,0-1.68,0-2.52-.1L2,57.57Z" style="fill:#e0ca7c"/>
<path d="M18.18,49.31,18.41,46a16.9,16.9,0,0,1-1.32-4.41c-.16-.88-.29-1.77-.4-2.67-.37-2.72-.58-5.43-1.1-8.09A25.44,25.44,0,0,0,6.76,16.52c-.27-.19-.53-.38-.76-.58s-.67-.47-1-.69L2.36,51.87C7.88,52.24,13.08,51,18.18,49.31Z" style="fill:#e0ca7c"/>
<path d="M13.65,68.08H14l1.39,0H16l.81,0,.46-6.38A57.27,57.27,0,0,1,4.56,59c-.89-.25-1.77-.5-2.66-.78L1,70.19A55.14,55.14,0,0,1,13.65,68.08Z" style="fill:#e0ca7c"/>
<path d="M6.6,15.59a4,4,0,0,0-.44-.28q.54.37,1.08.81L7,15.93a22.71,22.71,0,0,1,4.76,5c.37.51.74,1,1.1,1.6a27.54,27.54,0,0,1,4,12.32c.11.78.21,1.57.29,2.36a30.34,30.34,0,0,0,1.36,7.39l2.35-32.81c-4,.77-10.85,1.78-15.69.83L5,14.53C5.58,14.87,6.1,15.22,6.6,15.59Z" style="fill:#e0ca7c"/>
<path d="M7.92,69.32c-1.25.23-2.5.48-3.77.73q-1.56.36-3.13.8H1l-1,14a43.42,43.42,0,0,1,16-4.67l.82-11.4A48.24,48.24,0,0,0,7.92,69.32Z" style="fill:#e0ca7c"/>
<path d="M51.93,58.53a75.51,75.51,0,0,1-9,2.41l-1.56.3-1.08.18-1.67.25-1.33.17-.77.09a70.15,70.15,0,0,1-7,.42q-3.67,0-7.3-.29c-.89,0-1.79-.11-2.69-.18L19,68.15l.25,0c.52,0,1,.1,1.56.17l.28,0,.37.05a39.74,39.74,0,0,1,4.06.77c8,2,15.5,5.32,23.48,7.21.63.12,1.28.26,1.85.41l1.63.31C52.37,71.23,52.17,65,51.93,58.53Z" style="fill:#e0ca7c"/>
<path d="M51.89,57.83h0q-.13-3.39-.27-6.85c-6.78,2.78-14.26,4.84-21.58,3.09-3.43-1-6.73-2.26-9.33-4.73l-.36.12-.84,11.75A76.41,76.41,0,0,0,51.89,57.83Z" style="fill:#e0ca7c"/>
<path d="M22.68,50.21l-.4-.24a14.57,14.57,0,0,0,1.3.88l-.25-.18.44.29a25.62,25.62,0,0,0,6.45,2.55c.3.08.61.15.92.21,6.78,1.09,14.27-.88,20.45-3.43h0c-.13-3-.26-6.07-.39-9.12-10.61-.16-20.08,4.54-29.83,8C21.8,49.51,22.23,49.87,22.68,50.21Z" style="fill:#e0ca7c"/>
<path d="M46.77,76.51c-3.72-1-7.33-2.21-10.88-3.44l-1-.34c-2.5-.84-5-1.67-7.55-2.39A43.35,43.35,0,0,0,19,68.86L17.81,85.19c9.61-4.2,19.27-6.79,34.75-6,0-.47,0-1,0-1.43C50.58,77.46,48.66,77,46.77,76.51Z" style="fill:#e0ca7c"/>
<path d="M20.69,48.44c2-.72,4-1.48,6-2.22,3.1-1.15,6.19-2.28,9.32-3.24L37,42.67l.5-.16a42,42,0,0,1,10.16-1.87c1.15-.09,2.3-.13,3.47-.11-.63-14-1.34-28-1.89-40.53,0,0-16.46,3-25.51,1.7L20.46,48.14Z" style="fill:#e0ca7c"/>
<path d="M36.89,42.71,36,43c-2.36.73-4.69,1.57-7,2.43C31.38,44.55,34,43.63,36.89,42.71Z" style="fill:#e0ca7c"/>
</g>
</g>
</svg>